<svg xmlns="http://www.w3.org/2000/svg" viewBox="0 0 128 128"><defs><linearGradient id="win-back" x1="0" x2="0" y1="0" y2="1"><stop offset="0%" stop-color="#78350f"/><stop offset="100%" stop-color="#451a03"/></linearGradient><linearGradient id="win-mid" x1="0" x2="0" y1="0" y2="1"><stop offset="0%" stop-color="#92400e"/><stop offset="100%" stop-color="#78350f"/></linearGradient><linearGradient id="win-front" x1="0" x2="0" y1="0" y2="1"><stop offset="0%" stop-color="#f59e0b"/><stop offset="100%" stop-color="#d97706"/></linearGradient><linearGradient id="titlebar" x1="0" x2="0" y1="0" y2="1"><stop offset="0%" stop-color="#fbbf24"/><stop offset="100%" stop-color="#f59e0b"/></linearGradient></defs><rect width="76" height="60" x="10" y="38" fill="url(#win-back)" opacity=".6" rx="6"/><rect width="76" height="60" x="20" y="28" fill="url(#win-mid)" opacity=".7" rx="6"/><g><rect width="82" height="66" x="32" y="18" fill="url(#win-front)" rx="6"/><rect width="82" height="18" x="32" y="18" fill="url(#titlebar)" rx="6"/><rect width="82" height="6" x="32" y="30" fill="url(#titlebar)"/><circle cx="46" cy="28" r="2.8" fill="#b45309" opacity=".55"/><circle cx="55" cy="28" r="2.8" fill="#b45309" opacity=".55"/><circle cx="64" cy="28" r="2.8" fill="#b45309" opacity=".55"/><rect width="74" height="41" x="36" y="39" fill="#b45309" opacity=".22" rx="3"/><text x="45" y="65" fill="#fef3c7" font-family="'Courier New', monospace" font-size="20" font-weight="bold" opacity=".85">$</text><rect width="9" height="17" x="64" y="51" fill="#fef3c7" opacity=".75" rx="2"/></g></svg>